<?xml version="1.0" encoding="UTF-8"?>
<svg version="1.1" xmlns="http://www.w3.org/2000/svg" width="3061" height="3061">
<path d="M0 0 C184.14 0 368.28 0 558 0 C558 463.65 558 927.3 558 1405 C373.86 1405 189.72 1405 0 1405 C0 1312 0 1312 1 1311 C78.88 1311 156.76 1311 237 1311 C237 909.39 237 507.78 237 94 C158.79 94 80.58 94 0 94 C0 62.98 0 31.96 0 0 Z " fill="#FFFFFF" transform="translate(796,834)"/>
<path d="M0 0 C142.56 0 285.12 0 432 0 C432 358.38 432 716.76 432 1086 C289.44 1086 146.88 1086 0 1086 C0 1062.24 0 1038.48 0 1014 C60.72 1014 121.44 1014 184 1014 C184 703.47 184 392.94 184 73 C123.61 73 63.22 73 1 73 C0.67 72.67 0.34 72.34 0 72 C0 48.24 0 24.48 0 0 Z " fill="#FFFFFF" transform="translate(1445,992)"/>
<path d="M0 0 C114.84 0 229.68 0 348 0 C348 289.41 348 578.82 348 877 C233.16 877 118.32 877 0 877 C0 857.53 0 838.06 0 818 C48.84 818 97.68 818 148 818 C148 567.53 148 317.06 148 59 C99.16 59 50.32 59 0 59 C0 39.53 0 20.06 0 0 Z " fill="#FFFFFF" transform="translate(1944,1096)"/>
</svg>
